<?xml version="1.0" encoding="utf-8"?>
<!-- Generator: Adobe Illustrator 16.0.4, SVG Export Plug-In . SVG Version: 6.00 Build 0)  -->
<!DOCTYPE svg PUBLIC "-//W3C//DTD SVG 1.1//EN" "http://www.w3.org/Graphics/SVG/1.1/DTD/svg11.dtd">
<svg version="1.1" xmlns="http://www.w3.org/2000/svg" xmlns:xlink="http://www.w3.org/1999/xlink" x="0px" y="0px"
	 width="50.005px" height="350px" viewBox="0 0 50.005 350" enable-background="new 0 0 50.005 350" xml:space="preserve">
<g id="buttons_left">
	<circle id="bg" opacity="0.3" fill="#FFFFFF" cx="25" cy="25" r="25"/>
	<path id="arrow" opacity="0.8" fill-rule="evenodd" clip-rule="evenodd" fill="#FFFFFF" d="M17.857,26.373
		c-0.242-0.252-0.363-0.541-0.363-0.873c0-0.329,0.122-0.612,0.363-0.856l8.352-8.76c0.24-0.251,0.522-0.376,0.848-0.376
		c0.322,0,0.604,0.125,0.846,0.376l1.244,1.299c0.24,0.252,0.363,0.546,0.363,0.883c0,0.339-0.123,0.628-0.363,0.873l-6.322,6.627
		l6.322,6.498c0.24,0.252,0.363,0.539,0.363,0.864c0,0.327-0.123,0.612-0.363,0.864l-1.244,1.326
		c-0.242,0.252-0.523,0.376-0.846,0.376c-0.325,0-0.607-0.124-0.848-0.376L17.857,26.373L17.857,26.373z"/>
	<circle id="bg_2_" opacity="0.5" fill="#FFFFFF" cx="25" cy="85" r="25"/>
	<path id="arrow_1_" fill-rule="evenodd" clip-rule="evenodd" fill="#FFFFFF" d="M17.857,86.373
		c-0.242-0.252-0.363-0.541-0.363-0.873c0-0.329,0.122-0.612,0.363-0.856l8.352-8.76c0.24-0.251,0.522-0.376,0.848-0.376
		c0.322,0,0.604,0.125,0.846,0.376l1.244,1.299c0.24,0.252,0.363,0.546,0.363,0.883c0,0.339-0.123,0.628-0.363,0.873l-6.322,6.627
		l6.322,6.498c0.24,0.252,0.363,0.539,0.363,0.864c0,0.327-0.123,0.612-0.363,0.864l-1.244,1.326
		c-0.242,0.252-0.523,0.376-0.846,0.376c-0.325,0-0.607-0.124-0.848-0.376L17.857,86.373L17.857,86.373z"/>
	<circle id="bg_3_" opacity="0.7" fill="#FFFFFF" cx="25" cy="145" r="23"/>
	<path id="arrow_2_" fill-rule="evenodd" clip-rule="evenodd" fill="#FFFFFF" d="M17.857,146.373
		c-0.242-0.252-0.363-0.541-0.363-0.873c0-0.328,0.122-0.611,0.363-0.855l8.352-8.76c0.24-0.252,0.522-0.377,0.848-0.377
		c0.322,0,0.604,0.125,0.846,0.377l1.244,1.299c0.24,0.252,0.363,0.547,0.363,0.883c0,0.34-0.123,0.629-0.363,0.873l-6.322,6.627
		l6.322,6.498c0.24,0.252,0.363,0.539,0.363,0.864c0,0.327-0.123,0.612-0.363,0.864l-1.244,1.326
		c-0.242,0.252-0.523,0.376-0.846,0.376c-0.325,0-0.607-0.124-0.848-0.376L17.857,146.373L17.857,146.373z"/>
</g>
<g id="buttons_right">
	<circle id="bg_6_" opacity="0.3" fill="#FFFFFF" cx="25" cy="206" r="25"/>
	<path id="arrow_5_" opacity="0.8" fill-rule="evenodd" clip-rule="evenodd" fill="#FFFFFF" d="M32.143,207.373l-8.352,8.746
		c-0.24,0.252-0.522,0.376-0.848,0.376c-0.322,0-0.604-0.124-0.846-0.376l-1.244-1.326c-0.24-0.252-0.363-0.537-0.363-0.864
		c0-0.325,0.123-0.612,0.363-0.864l6.322-6.498l-6.322-6.627c-0.24-0.244-0.363-0.533-0.363-0.873c0-0.336,0.123-0.631,0.363-0.883
		l1.244-1.299c0.242-0.252,0.523-0.377,0.846-0.377c0.325,0,0.607,0.125,0.848,0.377l8.352,8.76
		c0.242,0.244,0.363,0.527,0.363,0.855C32.506,206.832,32.385,207.121,32.143,207.373L32.143,207.373z"/>
	<circle id="bg_5_" opacity="0.5" fill="#FFFFFF" cx="25" cy="266" r="25"/>
	<path id="arrow_4_" fill-rule="evenodd" clip-rule="evenodd" fill="#FFFFFF" d="M32.143,267.373l-8.352,8.746
		c-0.24,0.252-0.522,0.376-0.848,0.376c-0.322,0-0.604-0.124-0.846-0.376l-1.244-1.326c-0.24-0.252-0.363-0.537-0.363-0.864
		c0-0.325,0.123-0.612,0.363-0.864l6.322-6.498l-6.322-6.627c-0.24-0.244-0.363-0.533-0.363-0.873c0-0.336,0.123-0.631,0.363-0.883
		l1.244-1.299c0.242-0.252,0.523-0.377,0.846-0.377c0.325,0,0.607,0.125,0.848,0.377l8.352,8.76
		c0.242,0.244,0.363,0.527,0.363,0.855C32.506,266.832,32.385,267.121,32.143,267.373L32.143,267.373z"/>
	<circle id="bg_4_" opacity="0.7" fill="#FFFFFF" cx="25" cy="326" r="23"/>
	<path id="arrow_3_" fill-rule="evenodd" clip-rule="evenodd" fill="#FFFFFF" d="M32.143,327.373l-8.352,8.746
		c-0.24,0.252-0.522,0.376-0.848,0.376c-0.322,0-0.604-0.124-0.846-0.376l-1.244-1.326c-0.24-0.252-0.363-0.537-0.363-0.864
		c0-0.325,0.123-0.612,0.363-0.864l6.322-6.498l-6.322-6.627c-0.24-0.244-0.363-0.533-0.363-0.873c0-0.336,0.123-0.631,0.363-0.883
		l1.244-1.299c0.242-0.252,0.523-0.377,0.846-0.377c0.325,0,0.607,0.125,0.848,0.377l8.352,8.76
		c0.242,0.244,0.363,0.527,0.363,0.855C32.506,326.832,32.385,327.121,32.143,327.373L32.143,327.373z"/>
</g>
</svg>
