<?xml version="1.0" encoding="UTF-8" standalone="no"?>
<svg
   xmlns:dc="http://purl.org/dc/elements/1.1/"
   xmlns:cc="http://creativecommons.org/ns#"
   xmlns:rdf="http://www.w3.org/1999/02/22-rdf-syntax-ns#"
   xmlns:svg="http://www.w3.org/2000/svg"
   xmlns="http://www.w3.org/2000/svg"
   xmlns:sodipodi="http://sodipodi.sourceforge.net/DTD/sodipodi-0.dtd"
   xmlns:inkscape="http://www.inkscape.org/namespaces/inkscape"
   version="1.1"
   id="content-joomla"
   x="0px"
   y="0px"
   width="800px"
   height="600px"
   viewBox="0 0 800 600"
   enable-background="new 0 0 800 600"
   xml:space="preserve"
   inkscape:version="0.91 r13725"
   sodipodi:docname="content.svg"><metadata
     id="metadata17"><rdf:RDF><cc:Work
         rdf:about=""><dc:format>image/svg+xml</dc:format><dc:type
           rdf:resource="http://purl.org/dc/dcmitype/StillImage" /><dc:title></dc:title></cc:Work></rdf:RDF></metadata><defs
     id="defs15" /><sodipodi:namedview
     pagecolor="#ffffff"
     bordercolor="#666666"
     borderopacity="1"
     objecttolerance="10"
     gridtolerance="10"
     guidetolerance="10"
     inkscape:pageopacity="0"
     inkscape:pageshadow="2"
     inkscape:window-width="1843"
     inkscape:window-height="1177"
     id="namedview13"
     showgrid="false"
     inkscape:zoom="0.55625733"
     inkscape:cx="149.83617"
     inkscape:cy="252.76745"
     inkscape:window-x="69"
     inkscape:window-y="408"
     inkscape:window-maximized="1"
     inkscape:current-layer="content-joomla" /><rect
     x="0"
     width="800"
     height="600"
     id="rect3"
     fill="#1B63A2"
     style="fill:#aa0044" /><path
     d="m 326.77235,273.19448 c -7.59056,-3.10509 -14.34188,-7.48467 -20.32271,-13.14212 -3.62117,-3.42492 -6.33957,-7.24121 -7.64741,-12.16679 -1.03749,-3.90898 -1.17123,-7.7392 -0.34535,-11.61888 3.5906,-16.86909 10.10117,-32.47184 20.46123,-46.29251 4.35439,-5.80919 10.29988,-8.72987 17.67597,-7.90054 3.5481,0.39906 7.11816,0.89704 10.57598,1.76384 11.50072,2.88323 22.85337,6.24955 33.57837,11.45751 8.42075,4.08954 15.48396,9.73354 20.38338,17.87323 3.82656,6.35616 4.68541,13.2761 3.08857,20.36267 -3.91589,17.38437 -10.08588,33.82702 -20.99908,48.15288 -0.0912,0.12005 -0.11846,0.29005 -0.28994,0.72897 1.50559,0.16663 2.95673,0.22667 4.36681,0.49991 6.57074,1.27498 12.16802,4.38198 16.23581,9.73449 3.12965,4.11739 6.23208,8.35771 8.61085,12.93082 7.94882,15.27525 14.92224,30.98605 17.26423,48.27582 1.37472,10.14699 -1.10962,19.48051 -6.98202,27.92178 -7.4831,10.75592 -17.59047,18.13686 -29.38974,23.35011 -16.16512,7.14275 -32.94785,12.20472 -50.39742,15.03658 -11.78207,1.91174 -20.84002,-2.05822 -26.82419,-12.47607 -10.92706,-19.02238 -18.58307,-39.3159 -21.40701,-61.13123 -2.47144,-19.09299 9.2065,-39.74282 26.53903,-48.64174 11.05936,-5.67858 22.80132,-9.34312 34.9101,-11.92093 0.91521,-0.19448 1.81847,-0.44708 2.83399,-1.14292 -0.92237,-0.29677 -1.85286,-0.57098 -2.76664,-0.89416 -8.9199,-3.15311 -17.84124,-6.30286 -26.74825,-9.49295 -0.8746,-0.31309 -1.65654,-0.88697 -2.48529,-1.34268 2.90659,0.41683 5.47117,2.66808 8.8239,1.87909 -2.35632,-3.16512 -10.52821,-6.54682 -13.78827,-5.49513 1.84427,1.34844 3.44492,2.5197 5.0451,3.69095 z m 38.62203,93.62949 c 4.86072,-0.0446 8.53491,-3.63236 8.42887,-8.23189 -0.1261,-5.47159 -5.25287,-10.22335 -10.99058,-10.18733 -4.85593,0.0307 -8.48714,3.59298 -8.40498,8.24582 0.097,5.47687 5.21609,10.22623 10.96669,10.1734 z m -9.66028,-23.6344 c 4.77569,0.0101 8.45084,-3.42971 8.43985,-7.89669 -0.0134,-5.40965 -5.21227,-10.27234 -10.90412,-10.19935 -4.70308,0.06 -8.22347,3.37353 -8.28556,7.79826 -0.076,5.44183 4.98107,10.28626 10.74983,10.29778 z m -20.05379,-33.29494 c 0.0139,6.22988 6.41934,11.15162 12.78804,9.82767 4.67012,-0.971 7.2925,-5.42358 5.87575,-9.97557 -1.57342,-5.05669 -7.3097,-8.40957 -12.45558,-7.27962 -3.7296,0.8183 -6.21681,3.79372 -6.20821,7.42752 z m 70.50757,45.87714 c 4.62475,0.05 8.09307,-3.18289 8.14179,-7.58888 0.0592,-5.32034 -4.96436,-10.2517 -10.54827,-10.35494 -4.76422,-0.0888 -8.26645,3.18576 -8.2483,7.71037 0.0215,5.35011 5.04271,10.17246 10.65478,10.23345 z m -12.56687,-40.64852 c -4.64815,0.11718 -7.84707,3.24243 -7.77208,7.59272 0.0936,5.41542 5.36035,10.13884 11.10235,9.95684 4.38592,-0.13926 7.60252,-3.39706 7.53325,-7.63066 -0.0869,-5.35683 -5.23902,-10.06104 -10.86352,-9.9189 z m -6.77138,-5.07926 c 4.566,0.003 8.03814,-3.23475 7.98703,-7.4477 -0.0626,-5.09895 -5.03506,-9.74121 -10.50718,-9.81037 -4.49338,-0.0566 -7.91012,3.01577 -7.97126,7.16917 -0.0774,5.17771 5.02598,10.08505 10.49141,10.0889 z m -40.57854,-59.4596 c 4.33958,0.0177 8.18956,-3.6876 8.2464,-7.93705 0.0487,-3.64149 -2.5985,-6.39841 -6.21632,-6.4738 -4.36156,-0.0903 -8.38063,3.79851 -8.37108,8.10031 0.008,3.64197 2.67445,6.29565 6.341,6.31054 z m 9.62016,-32.6212 c -4.31808,0.0759 -8.20198,4.02278 -8.06775,8.19732 0.11655,3.60787 2.93907,6.20729 6.61661,6.09348 4.20631,-0.13013 7.98416,-3.96467 7.94738,-8.06717 -0.0316,-3.59012 -2.84736,-6.2875 -6.49624,-6.22363 z m 14.25542,-11.93581 c -0.042,-3.49598 -2.73176,-6.04306 -6.33909,-6.00272 -4.48908,0.0499 -8.21821,3.70008 -8.13892,7.96585 0.0654,3.51519 2.72126,6.05362 6.3281,6.04834 4.34436,-0.006 8.20054,-3.79756 8.14991,-8.01147 z m -46.37357,26.85858 c -0.006,-3.60259 -2.56029,-6.12998 -6.19245,-6.12902 -4.28513,8.1e-4 -8.20293,3.85182 -8.17857,8.03884 0.02,3.5128 2.7289,6.1857 6.23448,6.15208 4.31808,-0.0417 8.14466,-3.83358 8.13654,-8.0619 z m -0.18677,-10.08121 c 4.28321,0.006 8.24782,-3.92098 8.16328,-8.08495 -0.0697,-3.41675 -2.6754,-5.89995 -6.22349,-5.92973 -4.19055,-0.0355 -8.06537,3.71545 -8.10692,7.8482 -0.0368,3.61412 2.51204,6.16215 6.16713,6.16648 z m 9.8523,-31.82835 c -4.07925,-0.0341 -8.18812,3.89648 -8.17618,7.8213 0.011,3.50223 2.684,6.09541 6.28511,6.09685 4.06492,0.002 7.92636,-3.70777 7.98941,-7.6734 0.0564,-3.57522 -2.52063,-6.21402 -6.09834,-6.24475 z m -17.4763,144.66416 c -0.19633,-0.10325 -0.39265,-0.2065 -0.58896,-0.30974 0.0287,-4.02471 -1.4865,-9.47086 -3.63073,-12.23211 -0.61332,-0.78995 -1.71816,-1.19383 -2.59754,-1.77488 -0.56317,0.89704 -1.465,1.73502 -1.63218,2.70122 -0.75949,4.39975 0.20778,8.60262 2.04679,12.58699 0.78002,1.69084 1.6852,4.18605 3.81606,3.53008 1.20659,-0.37122 1.74634,-2.92885 2.58656,-4.50156 z m 6.52537,66.1692 c -0.49009,-5.51194 -1.28826,-9.89585 -4.08021,-13.59352 -0.59804,-0.79188 -1.74682,-1.16405 -2.64196,-1.72975 -0.54407,0.97821 -1.45879,1.91656 -1.56865,2.94182 -0.47958,4.47803 0.43801,8.78942 2.64053,12.67582 0.76999,1.35806 2.42032,2.21188 3.66894,3.2967 0.79005,-1.43201 1.58059,-2.86354 1.98135,-3.59107 z m 36.78589,-4.56543 c 5.82895,-0.89272 10.83439,-2.76654 15.01586,-6.46854 0.60712,-0.53688 0.75136,-1.60249 1.10962,-2.42365 -0.78959,-0.2574 -1.60686,-0.80148 -2.36444,-0.72753 -5.52419,0.54024 -10.46563,2.59317 -14.66191,6.26492 -0.60712,0.53064 -1.09289,1.64186 -0.98637,2.391 0.0636,0.45285 1.37901,0.72562 1.88724,0.9638 z m 40.39322,-11.64961 c 4.61901,-0.16279 12.26833,-3.48974 14.831,-6.29804 0.53737,-0.58923 0.74611,-1.481 1.10579,-2.23302 -0.7805,-0.27181 -1.59349,-0.84951 -2.3353,-0.76787 -5.35127,0.58875 -10.07681,2.76269 -14.20144,6.19193 -0.61237,0.50951 -0.76378,1.57944 -1.12824,2.39052 0.76426,0.31647 1.52948,0.63389 1.72819,0.71648 z m -40.50499,22.73255 c -5.71382,0.73618 -10.62469,2.57686 -14.77751,6.15448 -0.55169,0.47494 -0.6692,1.4589 -0.9878,2.20708 0.79197,0.27324 1.62071,0.85863 2.37017,0.77027 5.3102,-0.6286 10.10355,-2.60423 14.1957,-6.09733 0.56556,-0.48262 0.70313,-1.4709 1.03893,-2.22533 -0.68975,-0.30397 -1.3795,-0.60699 -1.83949,-0.80917 z m 25.38022,-2.2599 c 5.59632,-0.7549 10.40496,-2.67769 14.48184,-6.23707 0.51969,-0.45332 0.66681,-1.33788 0.98685,-2.02267 -0.70361,-0.26461 -1.44781,-0.83222 -2.1046,-0.74482 -5.30589,0.71024 -10.1069,2.70122 -14.20191,6.20873 -0.49439,0.42308 -0.84069,1.39312 -0.73179,2.0174 0.0664,0.37985 1.1378,0.58202 1.56961,0.77843 z M 369.84383,260.8572 c 0.80916,1.51989 1.43299,2.69162 2.05682,3.86384 1.08621,-0.79429 2.73129,-1.36478 3.15115,-2.42558 1.14926,-2.90292 1.92261,-5.98399 2.52589,-9.0574 0.15811,-0.80484 -0.84642,-1.8397 -1.31739,-2.76941 -0.909,0.52344 -2.25124,0.82454 -2.64818,1.60922 -1.40911,2.78574 -2.49531,5.73715 -3.76829,8.77933 z m 15.98456,-36.6968 c 0,0.94604 -0.12467,1.40175 0.0239,1.73359 0.39694,0.88456 0.76856,2.24694 1.41771,2.4227 0.68211,0.18488 1.96749,-0.57386 2.48004,-1.2889 2.24645,-3.13391 3.42628,-6.66831 2.90515,-10.5768 -0.10079,-0.75634 -0.69691,-1.84548 -1.2897,-2.02364 -0.58274,-0.1748 -1.65224,0.4346 -2.16047,1.01038 -2.31572,2.62246 -3.08141,5.87402 -3.37661,8.72267 z m 5.06563,18.24924 c -0.85311,-1.56167 -1.48649,-2.72092 -2.11987,-3.88016 -1.01408,0.78804 -2.55694,1.37486 -2.94194,2.40157 -1.10006,2.93365 -1.85142,6.02145 -2.45662,9.10492 -0.14808,0.75587 0.78814,1.72687 1.22568,2.59847 0.84833,-0.48263 2.10554,-0.75635 2.47287,-1.48436 1.41006,-2.79199 2.53401,-5.729 3.81988,-8.74044 z m -2.57652,23.71411 c -0.8063,-1.52949 -1.39,-2.6364 -1.97419,-3.74426 -1.01073,0.76499 -2.53878,1.32445 -2.93477,2.33291 -1.14066,2.90819 -1.94791,5.97102 -2.59706,9.03481 -0.15333,0.72225 0.83018,1.68844 1.29065,2.54179 0.79006,-0.43027 1.97037,-0.66365 2.30235,-1.32636 1.43203,-2.85729 2.61425,-5.84137 3.91302,-8.83889 z m 14.58644,-35.31521 c -0.74659,-1.43297 -1.33077,-2.55524 -1.91544,-3.67751 -0.96344,0.72081 -2.4122,1.24328 -2.79768,2.1994 -1.11725,2.76845 -1.97275,5.67714 -2.56458,8.60598 -0.17864,0.88264 0.83926,2.00972 1.30928,3.0249 0.88942,-0.56234 2.20442,-0.91771 2.59181,-1.72351 1.2916,-2.68922 2.25123,-5.54027 3.37661,-8.42926 z m -64.09732,34.40952 c 1.8051,3.70537 11.24423,7.60905 14.22104,5.95662 -4.20536,-3.265 -8.64573,-5.35346 -14.22104,-5.95662 z m -29.93188,-9.24227 c 1.55003,2.97687 10.5368,6.84263 13.52698,5.8188 -1.98231,-3.0028 -10.34192,-6.59867 -13.52698,-5.8188 z m 42.84029,22.74071 c 2.79673,4.00454 9.88097,6.49111 12.98531,4.8017 -4.0162,-2.84673 -8.29321,-4.41513 -12.98531,-4.8017 z"
     id="path9-8"
     inkscape:connector-curvature="0"
     style="clip-rule:evenodd;fill:#ffffff;fill-rule:evenodd" /><path
     d="m 408.30824,283.62817 c 0.45091,-13.56807 4.14229,-26.27752 10.1346,-38.37852 4.90132,-9.89777 12.75602,-16.22848 23.28041,-19.12228 13.0966,-3.60114 26.40146,-5.29055 39.85154,-2.44479 4.04438,0.85576 8.07683,2.50099 11.68988,4.54431 10.53966,5.96238 18.44645,14.84785 25.42607,24.58715 7.32498,10.22143 9.28007,21.58482 6.4351,33.76891 -2.55981,10.96482 -6.43032,21.40619 -12.65859,30.87849 -4.04724,6.15446 -9.25092,10.89517 -15.85033,14.17169 -4.19533,2.0832 -8.03289,5.13401 -12.41546,6.54634 -9.21462,2.96966 -18.58878,4.83895 -28.44635,4.23196 -3.30161,-0.20361 -5.24019,-1.02183 -8.27384,-2.43175 -1.54429,-0.71793 -3.82492,-2.2228 -5.01907,-3.74029 -0.27991,-0.35536 -0.6802,-0.63437 -1.06759,-0.88217 -12.30765,-9.73221 -23.84739,-21.64533 -30.33455,-36.96619 -1.99091,-4.70133 -2.90563,-9.62837 -2.75182,-14.76286 z m 64.93799,17.91069 c 4.02766,0.008 9.05556,-4.09531 10.07872,-8.2247 0.75948,-3.06475 -0.85215,-5.037 -3.967,-4.85596 -4.09407,0.23771 -9.08566,4.5832 -9.84037,8.56709 -0.51826,2.73531 0.94577,4.50828 3.72865,4.51357 z m -0.3635,-36.28094 c 2.74848,0.0908 4.91803,-0.88264 5.33838,-2.53987 0.59135,-2.33098 -0.90805,-3.80237 -2.53498,-4.97793 -2.99734,-2.16675 -6.33716,-3.39275 -10.0916,-2.60231 -3.46499,0.73041 -4.32,3.3428 -1.95795,5.98015 2.48528,2.77326 5.78595,3.82446 9.24615,4.13996 z m -31.39354,13.64251 c 0.3229,3.11133 0.99832,5.96094 3.06899,8.27031 1.91353,2.13361 4.30615,1.80129 5.64074,-0.67567 1.92594,-3.57426 0.8192,-10.48123 -2.11844,-13.21992 -1.94075,-1.80946 -4.14995,-1.54534 -5.25909,0.84999 -0.68449,1.47859 -0.90374,3.17616 -1.3322,4.77529 z m 49.66324,-16.2597 c 0.56891,-0.0821 1.45927,-0.10468 2.28372,-0.34815 2.74371,-0.81061 3.59682,-3.23379 1.6809,-5.35155 -3.05992,-3.38074 -6.96578,-5.05286 -11.5375,-4.3234 -1.14736,0.18296 -2.76998,1.22023 -3.02601,2.17587 -0.29711,1.10882 0.32911,2.86113 1.15403,3.80572 2.36349,2.70603 5.61257,3.76683 9.44486,4.04151 z m 12.83484,49.67805 c -3.98037,0.0538 -8.98724,4.32004 -9.75724,8.314 -0.52018,2.69932 0.94386,4.31717 3.72721,4.11932 3.73104,-0.26556 8.66101,-4.47275 9.52129,-8.12576 0.64149,-2.72524 -0.67159,-4.34597 -3.49126,-4.30756 z m -2.28801,-62.46769 c -0.75662,0.4394 -2.49771,1.06849 -3.61401,2.27864 -0.47575,0.51575 -0.0263,2.57636 0.65441,3.37065 2.92521,3.41194 6.80528,4.9155 11.24899,4.35221 1.14783,-0.14551 2.81536,-1.15492 3.07235,-2.09279 0.29901,-1.08866 -0.36208,-2.82656 -1.18605,-3.77067 -2.36157,-2.70171 -5.61924,-3.72169 -10.17569,-4.13804 z m -46.95584,-7.53846 c 0.76474,-0.50806 2.83542,-1.17077 3.58678,-2.5562 1.06185,-1.95592 -0.69644,-3.5685 -2.28514,-4.69413 -3.00786,-2.13168 -6.32858,-3.32934 -10.05723,-2.50865 -3.34843,0.73713 -4.12176,3.29093 -1.7664,5.77942 2.54786,2.69162 5.85521,3.64774 10.52199,3.97956 z m -28.16309,42.11991 c 0.28708,3.17039 1.35656,6.43107 2.90515,8.07341 1.84093,1.95257 3.9737,1.73407 5.29013,-0.54216 1.98327,-3.43164 0.87652,-10.56479 -2.04869,-13.1959 -1.80032,-1.61978 -3.85237,-1.35038 -4.87027,0.88647 -0.67351,1.47811 -0.86744,3.17761 -1.27632,4.77818 z m 39.14173,-54.24492 c -0.39598,0 -0.85884,-0.13495 -1.17648,0.0235 -1.27728,0.63869 -3.28538,1.14868 -3.55813,2.12063 -0.32529,1.16022 0.47002,3.15888 1.4478,4.06985 2.97251,2.76942 6.62425,4.05112 10.7293,3.1728 3.14207,-0.67182 3.89679,-3.08588 1.71243,-5.4471 -2.44852,-2.64745 -5.64648,-3.71354 -9.15492,-3.93971 z m -53.67133,60.15399 c 0.87556,2.13313 1.61642,4.82811 3.02027,7.11011 1.45402,2.36411 3.95651,1.92519 5.21992,-0.5801 1.69905,-3.36873 0.53642,-10.23057 -2.16573,-12.78484 -1.70621,-1.61258 -3.63025,-1.3912 -4.62045,0.78083 -0.67159,1.47331 -0.86505,3.16704 -1.45401,5.474 z m 76.35895,-52.77689 c 1.91688,-0.0701 4.05204,-0.0989 4.72219,-2.3449 0.62049,-2.08127 -0.96201,-3.44701 -2.46665,-4.50973 -2.94576,-2.08078 -6.20725,-3.30053 -9.86186,-2.5245 -3.14877,0.66942 -3.87339,3.13342 -1.63409,5.45288 2.50058,2.59125 5.67608,3.71063 9.24041,3.92625 z"
     id="path11-0"
     inkscape:connector-curvature="0"
     style="clip-rule:evenodd;fill:#ffffff;fill-opacity:1;fill-rule:evenodd"
     sodipodi:nodetypes="cssscsccccccccccccccccccccccccccccccccccccccccscsccccccccccccccccccsccccccccccccccc" /></svg>